<svg width="20" height="20" viewBox="0 0 20 20" fill="none" xmlns="http://www.w3.org/2000/svg">
<path d="M14.1673 10.9166C14.8548 10.9166 15.4598 10.5408 15.7715 9.97248L19.0532 4.02331C19.3923 3.41831 18.9523 2.66665 18.2557 2.66665H4.689L3.82733 0.833313H0.829834V2.66665H2.66317L5.96317 9.62415L4.72567 11.8608C4.0565 13.0891 4.9365 14.5833 6.32983 14.5833H17.3298V12.75H6.32983L7.33817 10.9166H14.1673ZM5.55983 4.49998H16.6973L14.1673 9.08331H7.73233L5.55983 4.49998ZM6.32983 15.5C5.3215 15.5 4.50567 16.325 4.50567 17.3333C4.50567 18.3416 5.3215 19.1666 6.32983 19.1666C7.33817 19.1666 8.16317 18.3416 8.16317 17.3333C8.16317 16.325 7.33817 15.5 6.32983 15.5ZM15.4965 15.5C14.4882 15.5 13.6723 16.325 13.6723 17.3333C13.6723 18.3416 14.4882 19.1666 15.4965 19.1666C16.5048 19.1666 17.3298 18.3416 17.3298 17.3333C17.3298 16.325 16.5048 15.5 15.4965 15.5Z" fill="#0D6EFD"/>
</svg>
