<svg width="63" height="22" viewBox="0 0 63 22" fill="none" xmlns="http://www.w3.org/2000/svg">
<path d="M5.3821 19.6364V3.27273H6.4304V19.6364H5.3821ZM8.40554 8.50781C8.34588 7.94957 8.09446 7.51491 7.65128 7.20384C7.21236 6.89276 6.64134 6.73722 5.93821 6.73722C5.44389 6.73722 5.01989 6.81179 4.66619 6.96094C4.3125 7.11008 4.0419 7.3125 3.8544 7.56818C3.6669 7.82386 3.57102 8.11577 3.56676 8.44389C3.56676 8.71662 3.62855 8.95312 3.75213 9.15341C3.87997 9.35369 4.05256 9.52415 4.26989 9.66477C4.48722 9.80114 4.72798 9.91619 4.99219 10.0099C5.25639 10.1037 5.52273 10.1825 5.79119 10.2464L7.01847 10.5533C7.51278 10.6683 7.98793 10.8239 8.44389 11.0199C8.90412 11.2159 9.31534 11.4631 9.67756 11.7614C10.044 12.0597 10.3338 12.4197 10.5469 12.8416C10.7599 13.2635 10.8665 13.7578 10.8665 14.3246C10.8665 15.0916 10.6705 15.767 10.2784 16.3509C9.88636 16.9304 9.3196 17.3842 8.57812 17.7124C7.84091 18.0362 6.94815 18.1982 5.89986 18.1982C4.88139 18.1982 3.99716 18.0405 3.24716 17.7251C2.50142 17.4098 1.91761 16.9496 1.49574 16.3445C1.07813 15.7393 0.852273 15.0021 0.818182 14.1328H3.15128C3.18537 14.5888 3.32599 14.968 3.57315 15.2706C3.82031 15.5732 4.14205 15.799 4.53835 15.9482C4.93892 16.0973 5.38636 16.1719 5.88068 16.1719C6.39631 16.1719 6.84801 16.0952 7.2358 15.9418C7.62784 15.7841 7.93466 15.5668 8.15625 15.2898C8.37784 15.0085 8.49077 14.6804 8.49503 14.3054C8.49077 13.9645 8.39063 13.6832 8.1946 13.4616C7.99858 13.2358 7.72372 13.0483 7.37003 12.8991C7.0206 12.7457 6.61151 12.6094 6.14276 12.4901L4.65341 12.1065C3.57528 11.8295 2.72301 11.4098 2.09659 10.8473C1.47443 10.2805 1.16335 9.52841 1.16335 8.59091C1.16335 7.8196 1.37216 7.14418 1.78977 6.56463C2.21165 5.98509 2.7848 5.53551 3.50923 5.21591C4.23366 4.89204 5.05398 4.73011 5.97017 4.73011C6.89915 4.73011 7.71307 4.89204 8.41193 5.21591C9.11506 5.53551 9.6669 5.98082 10.0675 6.55185C10.468 7.11861 10.6747 7.7706 10.6875 8.50781H8.40554ZM17.3976 4.73011C18.024 4.73437 18.6333 4.84517 19.2257 5.0625C19.8223 5.27557 20.3592 5.625 20.8365 6.1108C21.3137 6.59233 21.693 7.23793 21.9743 8.04759C22.2555 8.85724 22.3961 9.85866 22.3961 11.0518C22.4004 12.1768 22.2811 13.1825 22.0382 14.0689C21.7995 14.951 21.4565 15.6967 21.0091 16.3061C20.5616 16.9155 20.0225 17.38 19.3919 17.6996C18.7612 18.0192 18.0517 18.179 17.2633 18.179C16.4366 18.179 15.7037 18.017 15.0645 17.6932C14.4295 17.3693 13.916 16.9261 13.524 16.3636C13.1319 15.8011 12.8912 15.1577 12.8017 14.4332H15.1348C15.2541 14.9531 15.497 15.3665 15.8635 15.6733C16.2342 15.9759 16.7008 16.1271 17.2633 16.1271C18.171 16.1271 18.8699 15.733 19.3599 14.9446C19.85 14.1562 20.095 13.0611 20.095 11.6591H20.0055C19.7967 12.0341 19.5261 12.358 19.1937 12.6307C18.8613 12.8991 18.4842 13.1058 18.0623 13.2507C17.6447 13.3956 17.2015 13.468 16.7328 13.468C15.9657 13.468 15.2754 13.2848 14.6618 12.9183C14.0524 12.5518 13.5687 12.049 13.2108 11.4098C12.8571 10.7706 12.6781 10.0398 12.6738 9.21733C12.6738 8.36506 12.8699 7.60014 13.2619 6.92259C13.6582 6.24077 14.21 5.70384 14.9174 5.31179C15.6248 4.91548 16.4515 4.72159 17.3976 4.73011ZM17.4039 6.64773C16.9437 6.64773 16.5282 6.76065 16.1575 6.98651C15.791 7.2081 15.5012 7.51065 15.2882 7.89418C15.0794 8.27344 14.975 8.69744 14.975 9.16619C14.9792 9.63068 15.0836 10.0526 15.2882 10.4318C15.497 10.8111 15.7804 11.1115 16.1383 11.3331C16.5005 11.5547 16.9139 11.6655 17.3784 11.6655C17.7235 11.6655 18.0453 11.5994 18.3436 11.4673C18.6419 11.3352 18.9018 11.152 19.1234 10.9176C19.3493 10.679 19.524 10.4084 19.6476 10.1058C19.7754 9.80327 19.8372 9.48366 19.8329 9.14702C19.8329 8.69957 19.7264 8.28622 19.5133 7.90696C19.3045 7.5277 19.0169 7.22301 18.6504 6.9929C18.2882 6.76278 17.8727 6.64773 17.4039 6.64773ZM29.0694 4.73011C29.6958 4.73437 30.3052 4.84517 30.8976 5.0625C31.4941 5.27557 32.0311 5.625 32.5083 6.1108C32.9856 6.59233 33.3649 7.23793 33.6461 8.04759C33.9274 8.85724 34.068 9.85866 34.068 11.0518C34.0723 12.1768 33.9529 13.1825 33.7101 14.0689C33.4714 14.951 33.1284 15.6967 32.6809 16.3061C32.2335 16.9155 31.6944 17.38 31.0637 17.6996C30.4331 18.0192 29.7235 18.179 28.9352 18.179C28.1085 18.179 27.3755 18.017 26.7363 17.6932C26.1014 17.3693 25.5879 16.9261 25.1958 16.3636C24.8038 15.8011 24.563 15.1577 24.4735 14.4332H26.8066C26.926 14.9531 27.1689 15.3665 27.5353 15.6733C27.9061 15.9759 28.3727 16.1271 28.9352 16.1271C29.8429 16.1271 30.5417 15.733 31.0318 14.9446C31.5218 14.1562 31.7669 13.0611 31.7669 11.6591H31.6774C31.4686 12.0341 31.198 12.358 30.8656 12.6307C30.5332 12.8991 30.1561 13.1058 29.7342 13.2507C29.3166 13.3956 28.8734 13.468 28.4047 13.468C27.6376 13.468 26.9473 13.2848 26.3336 12.9183C25.7243 12.5518 25.2406 12.049 24.8826 11.4098C24.5289 10.7706 24.35 10.0398 24.3457 9.21733C24.3457 8.36506 24.5417 7.60014 24.9338 6.92259C25.3301 6.24077 25.8819 5.70384 26.5893 5.31179C27.2967 4.91548 28.1234 4.72159 29.0694 4.73011ZM29.0758 6.64773C28.6156 6.64773 28.2001 6.76065 27.8294 6.98651C27.4629 7.2081 27.1731 7.51065 26.96 7.89418C26.7512 8.27344 26.6468 8.69744 26.6468 9.16619C26.6511 9.63068 26.7555 10.0526 26.96 10.4318C27.1689 10.8111 27.4522 11.1115 27.8102 11.3331C28.1724 11.5547 28.5858 11.6655 29.0502 11.6655C29.3954 11.6655 29.7172 11.5994 30.0154 11.4673C30.3137 11.3352 30.5737 11.152 30.7953 10.9176C31.0211 10.679 31.1958 10.4084 31.3194 10.1058C31.4473 9.80327 31.5091 9.48366 31.5048 9.14702C31.5048 8.69957 31.3983 8.28622 31.1852 7.90696C30.9764 7.5277 30.6887 7.22301 30.3223 6.9929C29.96 6.76278 29.5446 6.64773 29.0758 6.64773ZM37.1378 18.1406C36.75 18.1406 36.4176 18.0043 36.1406 17.7315C35.8636 17.4588 35.7273 17.1264 35.7315 16.7344C35.7273 16.3509 35.8636 16.0227 36.1406 15.75C36.4176 15.4773 36.75 15.3409 37.1378 15.3409C37.5128 15.3409 37.8388 15.4773 38.1158 15.75C38.397 16.0227 38.5398 16.3509 38.544 16.7344C38.5398 16.9943 38.4716 17.2308 38.3395 17.4439C38.2116 17.657 38.0412 17.8274 37.8281 17.9553C37.6193 18.0788 37.3892 18.1406 37.1378 18.1406ZM45.3004 18.179C44.4482 18.179 43.6854 18.0192 43.0121 17.6996C42.3388 17.3757 41.804 16.9325 41.4077 16.37C41.0156 15.8075 40.8068 15.1641 40.7812 14.4396H43.0824C43.125 14.9766 43.3572 15.4155 43.7791 15.7564C44.201 16.093 44.7081 16.2614 45.3004 16.2614C45.7649 16.2614 46.1783 16.1548 46.5405 15.9418C46.9027 15.7287 47.1882 15.4325 47.397 15.0533C47.6058 14.674 47.7081 14.2415 47.7038 13.7557C47.7081 13.2614 47.6037 12.8224 47.3906 12.4389C47.1776 12.0554 46.8857 11.755 46.5149 11.5376C46.1442 11.3161 45.718 11.2053 45.2365 11.2053C44.8445 11.201 44.4588 11.2734 44.0795 11.4226C43.7003 11.5717 43.3999 11.7678 43.1783 12.0107L41.0369 11.6591L41.7209 4.90909H49.3146V6.89062H43.6832L43.3061 10.3615H43.3828C43.6257 10.076 43.9688 9.83949 44.4119 9.65199C44.8551 9.46023 45.3409 9.36435 45.8693 9.36435C46.6619 9.36435 47.3693 9.55185 47.9915 9.92685C48.6136 10.2976 49.1037 10.8089 49.4616 11.4609C49.8196 12.1129 49.9986 12.8587 49.9986 13.6982C49.9986 14.5632 49.7983 15.3345 49.3977 16.0121C49.0014 16.6854 48.4496 17.2159 47.7422 17.6037C47.0391 17.9872 46.2251 18.179 45.3004 18.179ZM56.9787 18.2493C55.9261 18.2493 55.0227 17.983 54.2685 17.4503C53.5185 16.9134 52.9411 16.1399 52.5362 15.13C52.1357 14.1158 51.9354 12.8949 51.9354 11.4673C51.9396 10.0398 52.142 8.82528 52.5426 7.82386C52.9474 6.81818 53.5249 6.05114 54.2749 5.52273C55.0291 4.99432 55.9304 4.73011 56.9787 4.73011C58.027 4.73011 58.9283 4.99432 59.6825 5.52273C60.4368 6.05114 61.0142 6.81818 61.4148 7.82386C61.8196 8.82955 62.022 10.044 62.022 11.4673C62.022 12.8991 61.8196 14.1222 61.4148 15.1364C61.0142 16.1463 60.4368 16.9176 59.6825 17.4503C58.9325 17.983 58.0313 18.2493 56.9787 18.2493ZM56.9787 16.2486C57.7969 16.2486 58.4425 15.8459 58.9155 15.0405C59.3928 14.2308 59.6314 13.0398 59.6314 11.4673C59.6314 10.4276 59.5227 9.55398 59.3054 8.84659C59.0881 8.1392 58.7813 7.60653 58.3849 7.24858C57.9886 6.88636 57.5199 6.70526 56.9787 6.70526C56.1648 6.70526 55.5213 7.11008 55.0483 7.91974C54.5753 8.72514 54.3366 9.90767 54.3324 11.4673C54.3281 12.5114 54.4325 13.3892 54.6456 14.1009C54.8629 14.8125 55.1697 15.3494 55.5661 15.7116C55.9624 16.0696 56.4332 16.2486 56.9787 16.2486Z" fill="#1C1C1C"/>
</svg>
