<svg width="110" height="19" viewBox="0 0 110 19" fill="none" xmlns="http://www.w3.org/2000/svg">
<path fill-rule="evenodd" clip-rule="evenodd" d="M72 13.0553L76.944 16L75.632 10.45L80 6.71579L74.248 6.23421L72 1L69.752 6.23421L64 6.71579L68.368 10.45L67.056 16L72 13.0553Z" fill="#D5CDC5"/>
<path fill-rule="evenodd" clip-rule="evenodd" d="M56 13.0553L60.944 16L59.632 10.45L64 6.71579L58.248 6.23421L56 1L53.752 6.23421L48 6.71579L52.368 10.45L51.056 16L56 13.0553Z" fill="#D5CDC5"/>
<path fill-rule="evenodd" clip-rule="evenodd" d="M40 13.0553L44.944 16L43.632 10.45L48 6.71579L42.248 6.23421L40 1L37.752 6.23421L32 6.71579L36.368 10.45L35.056 16L40 13.0553Z" fill="#FF9017"/>
<path fill-rule="evenodd" clip-rule="evenodd" d="M24 13.0553L28.944 16L27.632 10.45L32 6.71579L26.248 6.23421L24 1L21.752 6.23421L16 6.71579L20.368 10.45L19.056 16L24 13.0553Z" fill="#FF9017"/>
<path fill-rule="evenodd" clip-rule="evenodd" d="M8 13.0553L12.944 16L11.632 10.45L16 6.71579L10.248 6.23421L8 1L5.752 6.23421L0 6.71579L4.368 10.45L3.056 16L8 13.0553Z" fill="#FF9017"/>
<path d="M90.8409 15.1591C90.1742 15.1591 89.5739 15.0265 89.0398 14.7614C88.5057 14.4962 88.0777 14.1326 87.7557 13.6705C87.4337 13.2083 87.2576 12.6818 87.2273 12.0909H88.5909C88.6439 12.6174 88.8826 13.053 89.3068 13.3977C89.7348 13.7386 90.2462 13.9091 90.8409 13.9091C91.3182 13.9091 91.7424 13.7973 92.1136 13.5739C92.4886 13.3504 92.7822 13.0436 92.9943 12.6534C93.2102 12.2595 93.3182 11.8144 93.3182 11.3182C93.3182 10.8106 93.2064 10.358 92.983 9.96023C92.7633 9.55871 92.4602 9.24242 92.0739 9.01136C91.6875 8.7803 91.2462 8.66288 90.75 8.65909C90.3939 8.6553 90.0284 8.71023 89.6534 8.82386C89.2784 8.93371 88.9697 9.07576 88.7273 9.25L87.4091 9.09091L88.1136 3.36364H94.1591V4.61364H89.2955L88.8864 8.04545H88.9545C89.1932 7.85606 89.4924 7.69886 89.8523 7.57386C90.2121 7.44886 90.5871 7.38636 90.9773 7.38636C91.6894 7.38636 92.3239 7.55682 92.8807 7.89773C93.4413 8.23485 93.8807 8.69697 94.1989 9.28409C94.5208 9.87121 94.6818 10.5417 94.6818 11.2955C94.6818 12.0379 94.5152 12.7008 94.1818 13.2841C93.8523 13.8636 93.3977 14.322 92.8182 14.6591C92.2386 14.9924 91.5795 15.1591 90.8409 15.1591ZM97.5014 15.0909C97.2211 15.0909 96.9806 14.9905 96.7798 14.7898C96.5791 14.589 96.4787 14.3485 96.4787 14.0682C96.4787 13.7879 96.5791 13.5473 96.7798 13.3466C96.9806 13.1458 97.2211 13.0455 97.5014 13.0455C97.7817 13.0455 98.0223 13.1458 98.223 13.3466C98.4238 13.5473 98.5241 13.7879 98.5241 14.0682C98.5241 14.2538 98.4768 14.4242 98.3821 14.5795C98.2912 14.7348 98.1681 14.8598 98.0128 14.9545C97.8613 15.0455 97.6908 15.0909 97.5014 15.0909ZM104.503 3.20455C104.98 3.20833 105.457 3.29924 105.935 3.47727C106.412 3.6553 106.848 3.95076 107.241 4.36364C107.635 4.77273 107.952 5.33144 108.19 6.03977C108.429 6.74811 108.548 7.63636 108.548 8.70455C108.548 9.73864 108.45 10.6572 108.253 11.4602C108.06 12.2595 107.779 12.9337 107.412 13.483C107.048 14.0322 106.605 14.4489 106.082 14.733C105.563 15.017 104.976 15.1591 104.321 15.1591C103.67 15.1591 103.088 15.0303 102.577 14.7727C102.069 14.5114 101.652 14.1496 101.327 13.6875C101.005 13.2216 100.798 12.6818 100.707 12.0682H102.094C102.219 12.6023 102.467 13.0436 102.838 13.392C103.213 13.7367 103.707 13.9091 104.321 13.9091C105.219 13.9091 105.927 13.517 106.446 12.733C106.969 11.9489 107.23 10.8409 107.23 9.40909H107.139C106.927 9.72727 106.675 10.0019 106.384 10.233C106.092 10.464 105.768 10.642 105.412 10.767C105.056 10.892 104.677 10.9545 104.276 10.9545C103.609 10.9545 102.997 10.7898 102.44 10.4602C101.887 10.1269 101.444 9.67045 101.111 9.09091C100.781 8.50758 100.616 7.84091 100.616 7.09091C100.616 6.37879 100.776 5.72727 101.094 5.13636C101.416 4.54167 101.866 4.06818 102.446 3.71591C103.029 3.36364 103.715 3.19318 104.503 3.20455ZM104.503 4.45455C104.026 4.45455 103.596 4.57386 103.213 4.8125C102.834 5.04735 102.533 5.36553 102.31 5.76705C102.09 6.16477 101.98 6.60606 101.98 7.09091C101.98 7.57576 102.086 8.01705 102.298 8.41477C102.514 8.80871 102.808 9.12311 103.179 9.35795C103.554 9.58902 103.98 9.70455 104.457 9.70455C104.817 9.70455 105.152 9.63447 105.463 9.49432C105.774 9.35038 106.045 9.1553 106.276 8.90909C106.51 8.65909 106.694 8.37689 106.827 8.0625C106.959 7.74432 107.026 7.41288 107.026 7.06818C107.026 6.61364 106.916 6.1875 106.696 5.78977C106.48 5.39205 106.181 5.07008 105.798 4.82386C105.42 4.57765 104.988 4.45455 104.503 4.45455Z" fill="#FF9017"/>
</svg>
